<mxfile host="app.diagrams.net" agent="Mozilla/5.0 (Windows NT 10.0; Win64; x64; rv:128.0) Gecko/20100101 Firefox/128.0" version="24.7.5">
  <diagram name="Page-1" id="2NbImr3bmwWMpWcEoAiC">
    <mxGraphModel dx="2634" dy="1389" grid="1" gridSize="10" guides="1" tooltips="1" connect="1" arrows="1" fold="1" page="1" pageScale="1" pageWidth="850" pageHeight="1100" math="0" shadow="0">
      <root>
        <mxCell id="0" />
        <mxCell id="1" parent="0" />
        <mxCell id="pB4lNLq1GXLPRWGLW8nv-1" value="" style="group;align=left;fontSize=8;fontColor=#000000;opacity=50;" vertex="1" connectable="0" parent="1">
          <mxGeometry x="262.5" y="134" width="1169" height="1139.5" as="geometry" />
        </mxCell>
        <mxCell id="pB4lNLq1GXLPRWGLW8nv-2" value="" style="rounded=0;whiteSpace=wrap;html=1;rotation=90;fontSize=8;opacity=50;fillColor=#f5f5f5;gradientColor=#b3b3b3;strokeColor=#666666;" vertex="1" parent="pB4lNLq1GXLPRWGLW8nv-1">
          <mxGeometry x="-81.93" y="129.93" width="528.87" height="270" as="geometry" />
        </mxCell>
        <mxCell id="pB4lNLq1GXLPRWGLW8nv-3" value="" style="rounded=0;whiteSpace=wrap;html=1;fontSize=8;fontColor=#000000;opacity=50;" vertex="1" parent="pB4lNLq1GXLPRWGLW8nv-1">
          <mxGeometry x="47" width="160" height="40" as="geometry" />
        </mxCell>
        <mxCell id="pB4lNLq1GXLPRWGLW8nv-4" value="" style="rounded=0;whiteSpace=wrap;html=1;fontSize=8;fontColor=#000000;opacity=50;" vertex="1" parent="pB4lNLq1GXLPRWGLW8nv-1">
          <mxGeometry x="207" width="110" height="40" as="geometry" />
        </mxCell>
        <mxCell id="pB4lNLq1GXLPRWGLW8nv-5" value="" style="rounded=0;whiteSpace=wrap;html=1;fontSize=8;fontColor=#000000;opacity=50;" vertex="1" parent="pB4lNLq1GXLPRWGLW8nv-1">
          <mxGeometry x="47" y="40" width="270" height="40" as="geometry" />
        </mxCell>
        <mxCell id="pB4lNLq1GXLPRWGLW8nv-6" value="Tache_mesure_radar_1" style="text;html=1;strokeColor=none;fillColor=none;align=center;verticalAlign=middle;whiteSpace=wrap;rounded=0;fontStyle=1;fontSize=8;fontColor=#000000;opacity=50;" vertex="1" parent="pB4lNLq1GXLPRWGLW8nv-1">
          <mxGeometry x="57" y="10" width="140" height="20" as="geometry" />
        </mxCell>
        <mxCell id="pB4lNLq1GXLPRWGLW8nv-7" value="Initialisation, Implémentation, Intégration, Calibration et Récupéation des&amp;nbsp; données&amp;nbsp; de mesure." style="text;html=1;strokeColor=none;fillColor=none;align=center;verticalAlign=middle;whiteSpace=wrap;rounded=0;fontSize=8;fontColor=#000000;opacity=50;" vertex="1" parent="pB4lNLq1GXLPRWGLW8nv-1">
          <mxGeometry x="57" y="50" width="250" height="20" as="geometry" />
        </mxCell>
        <mxCell id="pB4lNLq1GXLPRWGLW8nv-8" value="&lt;br&gt;&lt;div&gt;→ DelayUntil (periode)&lt;/div&gt;&lt;div&gt;&lt;br&gt;&lt;/div&gt;→ Créer une structure pour gérer les ressources.&amp;nbsp; &lt;br&gt;&lt;br&gt;---&amp;gt; Intégration et Implémentation&amp;nbsp;&amp;nbsp; &lt;br&gt;&lt;span style=&quot;white-space: pre;&quot;&gt;&#x9;&lt;/span&gt;→ Initialiser la structure HAL (contenant des gestionnaires &lt;span style=&quot;white-space: pre;&quot;&gt;&#x9;&lt;/span&gt;&lt;span style=&quot;white-space: pre;&quot;&gt;&#x9;&lt;/span&gt;pour SPI, UART, etc.) . &lt;br&gt;&lt;span style=&quot;white-space: pre;&quot;&gt;&#x9;&lt;/span&gt;→ Enregistrer les fonctions dans HAL (seule la prototype est &lt;span style=&quot;white-space: pre;&quot;&gt;&#x9;&lt;/span&gt;&lt;span style=&quot;white-space: pre;&quot;&gt;&#x9;&lt;/span&gt;disponible pour le moment) . &lt;br&gt;&lt;br&gt;→ Confirmer que l&#39;enregistrement de cette couche a bien été &lt;span style=&quot;white-space: pre;&quot;&gt;&#x9;&lt;/span&gt;réalisé.&lt;br&gt;→ Initialiser la partie configuration de la structure des ressources.&amp;nbsp; &lt;br&gt;&lt;br&gt;→ Choisir et appliquer les paramètres configurés.&amp;nbsp; &lt;br&gt;→ Créer un handle pour le détecteur de distance.&amp;nbsp; &lt;br&gt;&lt;br&gt;→ Créer une instance du capteur (utilisée pour communiquer &lt;span style=&quot;white-space: pre;&quot;&gt;&#x9;&lt;/span&gt;avec le radar).&amp;nbsp; &lt;br&gt;→ Constituer une structure pour stocker les résultats de la &lt;span style=&quot;white-space: pre;&quot;&gt;&#x9;&lt;/span&gt;calibration.&amp;nbsp; &lt;br&gt;→ Procéder à la calibration du radar (activation/désactivation, &lt;span style=&quot;white-space: pre;&quot;&gt;&#x9;&lt;/span&gt;etc.).&amp;nbsp; &lt;br&gt;&lt;div&gt;→ Réaliser une calibration complète (envoyer des signaux au &lt;span style=&quot;white-space: pre;&quot;&gt;&#x9;&lt;/span&gt;radar jusqu&#39;à réception d&#39;une réponse via interruption) .&amp;nbsp;&lt;/div&gt;&lt;div&gt;&lt;br&gt;&lt;/div&gt;&lt;div&gt;→ While(1){&lt;br&gt;&lt;div&gt;&lt;br&gt;&lt;/div&gt;&lt;span style=&quot;white-space: pre;&quot;&gt;&#x9;&lt;/span&gt;→ Créer la structure qui va contenir les résultats.&lt;br&gt;&lt;br&gt;&lt;span style=&quot;white-space: pre;&quot;&gt;&#x9;&lt;/span&gt;→ Récupérer les résultats.&lt;br&gt;&lt;br&gt;&lt;span style=&quot;white-space: pre;&quot;&gt;&#x9;&lt;/span&gt;→ En cas d&#39;échec, effectuer un nettoyage et envoyer un &lt;span style=&quot;white-space: pre;&quot;&gt;&#x9;&lt;/span&gt;&lt;span style=&quot;white-space: pre;&quot;&gt;&#x9;&lt;/span&gt;message à l&#39;utilisateur .&lt;br&gt;&lt;br&gt;&lt;span style=&quot;white-space: pre;&quot;&gt;&#x9;&lt;/span&gt;→ Si le radar nécessite une calibration, en effectuer une (le &lt;span style=&quot;white-space: pre;&quot;&gt;&#x9;&lt;/span&gt;&lt;span style=&quot;white-space: pre;&quot;&gt;&#x9;&lt;/span&gt;flag &lt;span style=&quot;white-space: pre;&quot;&gt;&#x9;&lt;/span&gt;de calibration nécessaire est automatiquement mis &lt;span style=&quot;white-space: pre;&quot;&gt;&#x9;&lt;/span&gt;&lt;span style=&quot;white-space: pre;&quot;&gt;&#x9;&lt;/span&gt;à jour).&lt;br&gt;&lt;br&gt;&lt;span style=&quot;white-space: pre;&quot;&gt;&#x9;&lt;/span&gt;→ Envoi vers la Tâche IDLE qui Gère l&#39;Affichage&lt;/div&gt;&lt;div&gt;&lt;br&gt;&lt;/div&gt;&lt;div&gt;}&lt;br&gt;&lt;/div&gt;&lt;div&gt;→ Effectuer un nettoyage. &lt;br&gt;&lt;/div&gt;&lt;div&gt;&lt;br&gt;&lt;/div&gt;" style="text;html=1;strokeColor=none;fillColor=none;align=left;verticalAlign=top;whiteSpace=wrap;rounded=0;fontSize=8;fontColor=#000000;opacity=50;" vertex="1" parent="pB4lNLq1GXLPRWGLW8nv-1">
          <mxGeometry x="56" y="70" width="257" height="450" as="geometry" />
        </mxCell>
        <mxCell id="pB4lNLq1GXLPRWGLW8nv-9" value="&lt;div&gt;HighPriorityTask&amp;nbsp; : +2&lt;/div&gt;&lt;div&gt;Periodique :&amp;nbsp; 100 ms &lt;br&gt;&lt;/div&gt;" style="text;html=1;strokeColor=none;fillColor=none;align=center;verticalAlign=middle;whiteSpace=wrap;rounded=0;fontStyle=2;fontSize=8;fontColor=#000000;opacity=50;" vertex="1" parent="pB4lNLq1GXLPRWGLW8nv-1">
          <mxGeometry x="219.5" y="10" width="85" height="20" as="geometry" />
        </mxCell>
        <mxCell id="pB4lNLq1GXLPRWGLW8nv-48" value="" style="rounded=0;whiteSpace=wrap;html=1;rotation=90;fontSize=8;opacity=50;fillColor=#f5f5f5;gradientColor=#b3b3b3;strokeColor=#666666;" vertex="1" parent="pB4lNLq1GXLPRWGLW8nv-1">
          <mxGeometry x="457.5" y="129.93" width="528.87" height="270" as="geometry" />
        </mxCell>
        <mxCell id="pB4lNLq1GXLPRWGLW8nv-49" value="" style="rounded=0;whiteSpace=wrap;html=1;fontSize=8;fontColor=#000000;opacity=50;" vertex="1" parent="pB4lNLq1GXLPRWGLW8nv-1">
          <mxGeometry x="586.43" width="160" height="40" as="geometry" />
        </mxCell>
        <mxCell id="pB4lNLq1GXLPRWGLW8nv-50" value="" style="rounded=0;whiteSpace=wrap;html=1;fontSize=8;fontColor=#000000;opacity=50;" vertex="1" parent="pB4lNLq1GXLPRWGLW8nv-1">
          <mxGeometry x="746.43" width="110" height="40" as="geometry" />
        </mxCell>
        <mxCell id="pB4lNLq1GXLPRWGLW8nv-51" value="" style="rounded=0;whiteSpace=wrap;html=1;fontSize=8;fontColor=#000000;opacity=50;" vertex="1" parent="pB4lNLq1GXLPRWGLW8nv-1">
          <mxGeometry x="586.43" y="40" width="270" height="40" as="geometry" />
        </mxCell>
        <mxCell id="pB4lNLq1GXLPRWGLW8nv-52" value="Tache_mesure_radar_i" style="text;html=1;strokeColor=none;fillColor=none;align=center;verticalAlign=middle;whiteSpace=wrap;rounded=0;fontStyle=1;fontSize=8;fontColor=#000000;opacity=50;" vertex="1" parent="pB4lNLq1GXLPRWGLW8nv-1">
          <mxGeometry x="596.43" y="10" width="140" height="20" as="geometry" />
        </mxCell>
        <mxCell id="pB4lNLq1GXLPRWGLW8nv-53" value="Initialisation, Implémentation, Intégration, Calibration et Récupéation des&amp;nbsp; données&amp;nbsp; de mesure." style="text;html=1;strokeColor=none;fillColor=none;align=center;verticalAlign=middle;whiteSpace=wrap;rounded=0;fontSize=8;fontColor=#000000;opacity=50;" vertex="1" parent="pB4lNLq1GXLPRWGLW8nv-1">
          <mxGeometry x="596.43" y="50" width="250" height="20" as="geometry" />
        </mxCell>
        <mxCell id="pB4lNLq1GXLPRWGLW8nv-69" style="edgeStyle=orthogonalEdgeStyle;rounded=0;orthogonalLoop=1;jettySize=auto;html=1;exitX=-0.003;exitY=0.839;exitDx=0;exitDy=0;entryX=1;entryY=0;entryDx=0;entryDy=0;dashed=1;strokeWidth=2;exitPerimeter=0;" edge="1" parent="pB4lNLq1GXLPRWGLW8nv-1" source="pB4lNLq1GXLPRWGLW8nv-54" target="pB4lNLq1GXLPRWGLW8nv-62">
          <mxGeometry relative="1" as="geometry" />
        </mxCell>
        <mxCell id="pB4lNLq1GXLPRWGLW8nv-85" style="edgeStyle=orthogonalEdgeStyle;rounded=0;orthogonalLoop=1;jettySize=auto;html=1;exitX=0.25;exitY=1;exitDx=0;exitDy=0;entryX=0;entryY=0;entryDx=0;entryDy=0;curved=1;" edge="1" parent="pB4lNLq1GXLPRWGLW8nv-1" source="pB4lNLq1GXLPRWGLW8nv-54" target="pB4lNLq1GXLPRWGLW8nv-76">
          <mxGeometry relative="1" as="geometry">
            <Array as="points">
              <mxPoint x="660" y="586" />
              <mxPoint x="-16" y="586" />
            </Array>
          </mxGeometry>
        </mxCell>
        <mxCell id="pB4lNLq1GXLPRWGLW8nv-54" value="&lt;br&gt;&lt;div&gt;→ DelayUntil (periode)&lt;/div&gt;&lt;div&gt;&lt;br&gt;&lt;/div&gt;→ Créer une structure pour gérer les ressources.&amp;nbsp; &lt;br&gt;&lt;br&gt;---&amp;gt; Intégration et Implémentation&amp;nbsp;&amp;nbsp; &lt;br&gt;&lt;span style=&quot;white-space: pre;&quot;&gt;&#x9;&lt;/span&gt;→ Initialiser la structure HAL (contenant des gestionnaires &lt;span style=&quot;white-space: pre;&quot;&gt;&#x9;&lt;/span&gt;&lt;span style=&quot;white-space: pre;&quot;&gt;&#x9;&lt;/span&gt;pour SPI, UART, etc.) . &lt;br&gt;&lt;span style=&quot;white-space: pre;&quot;&gt;&#x9;&lt;/span&gt;→ Enregistrer les fonctions dans HAL (seule la prototype est &lt;span style=&quot;white-space: pre;&quot;&gt;&#x9;&lt;/span&gt;&lt;span style=&quot;white-space: pre;&quot;&gt;&#x9;&lt;/span&gt;disponible pour le moment) . &lt;br&gt;&lt;br&gt;→ Confirmer que l&#39;enregistrement de cette couche a bien été &lt;span style=&quot;white-space: pre;&quot;&gt;&#x9;&lt;/span&gt;réalisé.&lt;br&gt;→ Initialiser la partie configuration de la structure des ressources.&amp;nbsp; &lt;br&gt;&lt;br&gt;→ Choisir et appliquer les paramètres configurés.&amp;nbsp; &lt;br&gt;→ Créer un handle pour le détecteur de distance.&amp;nbsp; &lt;br&gt;&lt;br&gt;→ Créer une instance du capteur (utilisée pour communiquer &lt;span style=&quot;white-space: pre;&quot;&gt;&#x9;&lt;/span&gt;avec le radar).&amp;nbsp; &lt;br&gt;→ Constituer une structure pour stocker les résultats de la &lt;span style=&quot;white-space: pre;&quot;&gt;&#x9;&lt;/span&gt;calibration.&amp;nbsp; &lt;br&gt;→ Procéder à la calibration du radar (activation/désactivation, &lt;span style=&quot;white-space: pre;&quot;&gt;&#x9;&lt;/span&gt;etc.).&amp;nbsp; &lt;br&gt;&lt;div&gt;→ Réaliser une calibration complète (envoyer des signaux au &lt;span style=&quot;white-space: pre;&quot;&gt;&#x9;&lt;/span&gt;radar jusqu&#39;à réception d&#39;une réponse via interruption) .&amp;nbsp;&lt;/div&gt;&lt;div&gt;&lt;br&gt;&lt;/div&gt;&lt;div&gt;→ While(1){&lt;br&gt;&lt;div&gt;&lt;br&gt;&lt;/div&gt;&lt;span style=&quot;white-space: pre;&quot;&gt;&#x9;&lt;/span&gt;→ Créer la structure qui va contenir les résultats.&lt;br&gt;&lt;br&gt;&lt;span style=&quot;white-space: pre;&quot;&gt;&#x9;&lt;/span&gt;→ Récupérer les résultats.&lt;br&gt;&lt;br&gt;&lt;span style=&quot;white-space: pre;&quot;&gt;&#x9;&lt;/span&gt;→ En cas d&#39;échec, effectuer un nettoyage et envoyer un &lt;span style=&quot;white-space: pre;&quot;&gt;&#x9;&lt;/span&gt;&lt;span style=&quot;white-space: pre;&quot;&gt;&#x9;&lt;/span&gt;message &lt;span style=&quot;white-space: pre;&quot;&gt;&#x9;&lt;/span&gt;à l&#39;utilisateur.&lt;br&gt;&lt;br&gt;&lt;span style=&quot;white-space: pre;&quot;&gt;&#x9;&lt;/span&gt;→ Si le radar nécessite une calibration, en effectuer une (le &lt;span style=&quot;white-space: pre;&quot;&gt;&#x9;&lt;/span&gt;&lt;span style=&quot;white-space: pre;&quot;&gt;&#x9;&lt;/span&gt;flag &lt;span style=&quot;white-space: pre;&quot;&gt;&#x9;&lt;/span&gt;de calibration nécessaire est automatiquement mis &lt;span style=&quot;white-space: pre;&quot;&gt;&#x9;&lt;/span&gt;&lt;span style=&quot;white-space: pre;&quot;&gt;&#x9;&lt;/span&gt;à jour).&lt;br&gt;&lt;br&gt;&lt;span style=&quot;white-space: pre;&quot;&gt;&#x9;&lt;/span&gt;→ Envoi vers la Tâche IDLE qui Gère l&#39;Affichage&lt;/div&gt;&lt;div&gt;&lt;br&gt;&lt;/div&gt;&lt;div&gt;}&lt;br&gt;&lt;/div&gt;&lt;div&gt;→ Effectuer un nettoyage. &lt;br&gt;&lt;/div&gt;&lt;div&gt;&lt;br&gt;&lt;/div&gt;" style="text;html=1;strokeColor=none;fillColor=none;align=left;verticalAlign=top;whiteSpace=wrap;rounded=0;fontSize=8;fontColor=#000000;opacity=50;" vertex="1" parent="pB4lNLq1GXLPRWGLW8nv-1">
          <mxGeometry x="595.43" y="70" width="257" height="450" as="geometry" />
        </mxCell>
        <mxCell id="pB4lNLq1GXLPRWGLW8nv-55" value="&lt;div&gt;HighPriorityTask&amp;nbsp; : +2&lt;/div&gt;&lt;div&gt;Periodique :&amp;nbsp; 100 ms &lt;br&gt;&lt;/div&gt;" style="text;html=1;strokeColor=none;fillColor=none;align=center;verticalAlign=middle;whiteSpace=wrap;rounded=0;fontStyle=2;fontSize=8;fontColor=#000000;opacity=50;" vertex="1" parent="pB4lNLq1GXLPRWGLW8nv-1">
          <mxGeometry x="758.93" y="10" width="85" height="20" as="geometry" />
        </mxCell>
        <mxCell id="pB4lNLq1GXLPRWGLW8nv-60" value="" style="group" vertex="1" connectable="0" parent="pB4lNLq1GXLPRWGLW8nv-1">
          <mxGeometry x="297.5" y="596" width="202.5" height="124" as="geometry" />
        </mxCell>
        <mxCell id="pB4lNLq1GXLPRWGLW8nv-61" value="" style="group" vertex="1" connectable="0" parent="pB4lNLq1GXLPRWGLW8nv-60">
          <mxGeometry x="20.948275862068968" width="181.55172413793107" height="93" as="geometry" />
        </mxCell>
        <mxCell id="pB4lNLq1GXLPRWGLW8nv-62" value="" style="ellipse;whiteSpace=wrap;html=1;align=left;" vertex="1" parent="pB4lNLq1GXLPRWGLW8nv-61">
          <mxGeometry width="181.55172413793107" height="93" as="geometry" />
        </mxCell>
        <mxCell id="pB4lNLq1GXLPRWGLW8nv-63" value="" style="group" vertex="1" connectable="0" parent="pB4lNLq1GXLPRWGLW8nv-60">
          <mxGeometry x="11.172413793103448" y="15.500000000000002" width="181.55172413793107" height="93" as="geometry" />
        </mxCell>
        <mxCell id="pB4lNLq1GXLPRWGLW8nv-64" value="" style="ellipse;whiteSpace=wrap;html=1;align=left;" vertex="1" parent="pB4lNLq1GXLPRWGLW8nv-63">
          <mxGeometry width="181.55172413793107" height="93" as="geometry" />
        </mxCell>
        <mxCell id="pB4lNLq1GXLPRWGLW8nv-65" value="" style="group" vertex="1" connectable="0" parent="pB4lNLq1GXLPRWGLW8nv-60">
          <mxGeometry y="31.000000000000004" width="181.55172413793107" height="93" as="geometry" />
        </mxCell>
        <mxCell id="pB4lNLq1GXLPRWGLW8nv-66" value="" style="ellipse;whiteSpace=wrap;html=1;align=left;" vertex="1" parent="pB4lNLq1GXLPRWGLW8nv-65">
          <mxGeometry width="181.55172413793107" height="93" as="geometry" />
        </mxCell>
        <mxCell id="pB4lNLq1GXLPRWGLW8nv-67" value="&lt;div&gt;Structure qui Contient les Messages, l&#39;État de Calibration et les Résultats&lt;/div&gt;&lt;div&gt;&lt;font style=&quot;font-size: 26px;&quot;&gt;[&amp;nbsp; !!!&amp;nbsp;&amp;nbsp; ]&lt;/font&gt;&lt;/div&gt;" style="text;html=1;strokeColor=none;fillColor=none;align=center;verticalAlign=middle;whiteSpace=wrap;rounded=0;" vertex="1" parent="pB4lNLq1GXLPRWGLW8nv-65">
          <mxGeometry x="13.965517241379317" y="31.000000000000004" width="153.62068965517247" height="31.000000000000004" as="geometry" />
        </mxCell>
        <mxCell id="pB4lNLq1GXLPRWGLW8nv-68" style="edgeStyle=orthogonalEdgeStyle;rounded=0;orthogonalLoop=1;jettySize=auto;html=1;exitX=1.003;exitY=0.846;exitDx=0;exitDy=0;entryX=0.189;entryY=0.116;entryDx=0;entryDy=0;entryPerimeter=0;dashed=1;strokeWidth=2;exitPerimeter=0;" edge="1" parent="pB4lNLq1GXLPRWGLW8nv-1" source="pB4lNLq1GXLPRWGLW8nv-8" target="pB4lNLq1GXLPRWGLW8nv-62">
          <mxGeometry relative="1" as="geometry" />
        </mxCell>
        <mxCell id="pB4lNLq1GXLPRWGLW8nv-12" value="" style="rounded=0;whiteSpace=wrap;html=1;rotation=90;fontSize=8;opacity=50;fillColor=#f5f5f5;strokeColor=#666666;gradientColor=#b3b3b3;" vertex="1" parent="pB4lNLq1GXLPRWGLW8nv-1">
          <mxGeometry x="562" y="696" width="162" height="270" as="geometry" />
        </mxCell>
        <mxCell id="pB4lNLq1GXLPRWGLW8nv-13" value="" style="rounded=0;whiteSpace=wrap;html=1;fontSize=8;fontColor=#000000;opacity=50;" vertex="1" parent="pB4lNLq1GXLPRWGLW8nv-1">
          <mxGeometry x="507.5" y="749.5" width="160" height="40" as="geometry" />
        </mxCell>
        <mxCell id="pB4lNLq1GXLPRWGLW8nv-14" value="" style="rounded=0;whiteSpace=wrap;html=1;fontSize=8;fontColor=#000000;opacity=50;" vertex="1" parent="pB4lNLq1GXLPRWGLW8nv-1">
          <mxGeometry x="667.5" y="749.5" width="110" height="40" as="geometry" />
        </mxCell>
        <mxCell id="pB4lNLq1GXLPRWGLW8nv-15" value="" style="rounded=0;whiteSpace=wrap;html=1;fontSize=8;fontColor=#000000;opacity=50;" vertex="1" parent="pB4lNLq1GXLPRWGLW8nv-1">
          <mxGeometry x="507.5" y="789.5" width="270" height="40" as="geometry" />
        </mxCell>
        <mxCell id="pB4lNLq1GXLPRWGLW8nv-16" value="IDLE" style="text;html=1;strokeColor=none;fillColor=none;align=center;verticalAlign=middle;whiteSpace=wrap;rounded=0;fontStyle=1;fontSize=8;fontColor=#000000;opacity=50;" vertex="1" parent="pB4lNLq1GXLPRWGLW8nv-1">
          <mxGeometry x="517.5" y="759.5" width="140" height="20" as="geometry" />
        </mxCell>
        <mxCell id="pB4lNLq1GXLPRWGLW8nv-17" value="Lowest Priority" style="text;html=1;strokeColor=none;fillColor=none;align=center;verticalAlign=middle;whiteSpace=wrap;rounded=0;fontStyle=2;fontSize=8;fontColor=#000000;opacity=50;" vertex="1" parent="pB4lNLq1GXLPRWGLW8nv-1">
          <mxGeometry x="677.5" y="759.5" width="90" height="20" as="geometry" />
        </mxCell>
        <mxCell id="pB4lNLq1GXLPRWGLW8nv-18" value="&lt;br&gt;Gestion des Affichages " style="text;html=1;strokeColor=none;fillColor=none;align=center;verticalAlign=middle;whiteSpace=wrap;rounded=0;fontSize=8;fontColor=#000000;opacity=50;" vertex="1" parent="pB4lNLq1GXLPRWGLW8nv-1">
          <mxGeometry x="517.5" y="799.5" width="250" height="20" as="geometry" />
        </mxCell>
        <mxCell id="pB4lNLq1GXLPRWGLW8nv-70" style="edgeStyle=orthogonalEdgeStyle;rounded=0;orthogonalLoop=1;jettySize=auto;html=1;exitX=0.5;exitY=1;exitDx=0;exitDy=0;entryX=0.626;entryY=0.998;entryDx=0;entryDy=0;entryPerimeter=0;" edge="1" parent="pB4lNLq1GXLPRWGLW8nv-1" source="pB4lNLq1GXLPRWGLW8nv-66" target="pB4lNLq1GXLPRWGLW8nv-12">
          <mxGeometry relative="1" as="geometry" />
        </mxCell>
        <mxCell id="pB4lNLq1GXLPRWGLW8nv-11" value="" style="group;align=left;fontSize=8;fontColor=#000000;opacity=50;" vertex="1" connectable="0" parent="pB4lNLq1GXLPRWGLW8nv-1">
          <mxGeometry x="457.50000000000006" y="749.5" width="362" height="350" as="geometry" />
        </mxCell>
        <mxCell id="pB4lNLq1GXLPRWGLW8nv-19" value="&lt;div&gt;→ Attente des Structures .&lt;/div&gt;&lt;div&gt;&lt;br&gt;&lt;/div&gt;&lt;div&gt;→Gestion des Affichages .&lt;br&gt;&lt;div&gt;&lt;br&gt;&lt;br&gt;&lt;/div&gt;&lt;/div&gt;" style="text;html=1;strokeColor=none;fillColor=none;align=left;verticalAlign=top;whiteSpace=wrap;rounded=0;fontSize=8;fontColor=#000000;opacity=50;" vertex="1" parent="pB4lNLq1GXLPRWGLW8nv-11">
          <mxGeometry x="57" y="90" width="250" height="110" as="geometry" />
        </mxCell>
        <mxCell id="pB4lNLq1GXLPRWGLW8nv-74" value="" style="group;rotation=90;" vertex="1" connectable="0" parent="pB4lNLq1GXLPRWGLW8nv-1">
          <mxGeometry x="-102.5" y="660" width="130" height="60" as="geometry" />
        </mxCell>
        <mxCell id="pB4lNLq1GXLPRWGLW8nv-75" value="" style="group;rotation=90;" vertex="1" connectable="0" parent="pB4lNLq1GXLPRWGLW8nv-74">
          <mxGeometry width="130" height="60" as="geometry" />
        </mxCell>
        <mxCell id="pB4lNLq1GXLPRWGLW8nv-76" value="" style="ellipse;whiteSpace=wrap;html=1;align=left;rotation=90;" vertex="1" parent="pB4lNLq1GXLPRWGLW8nv-75">
          <mxGeometry width="130" height="60" as="geometry" />
        </mxCell>
        <mxCell id="pB4lNLq1GXLPRWGLW8nv-77" value="&lt;div&gt;Muetx GPIOs&lt;/div&gt;" style="text;html=1;strokeColor=none;fillColor=none;align=center;verticalAlign=middle;whiteSpace=wrap;rounded=0;rotation=90;" vertex="1" parent="pB4lNLq1GXLPRWGLW8nv-75">
          <mxGeometry x="10" y="20" width="110" height="20" as="geometry" />
        </mxCell>
        <mxCell id="pB4lNLq1GXLPRWGLW8nv-78" value="&lt;font style=&quot;font-size: 8px&quot; color=&quot;#cccccc&quot;&gt;&lt;i&gt;Mutex&lt;/i&gt;&lt;/font&gt;" style="text;html=1;strokeColor=none;fillColor=none;align=center;verticalAlign=middle;whiteSpace=wrap;rounded=0;dropTarget=0;connectable=0;rotation=90;" vertex="1" parent="pB4lNLq1GXLPRWGLW8nv-75">
          <mxGeometry x="60" y="20" width="60" height="20" as="geometry" />
        </mxCell>
        <mxCell id="pB4lNLq1GXLPRWGLW8nv-84" style="edgeStyle=orthogonalEdgeStyle;rounded=0;orthogonalLoop=1;jettySize=auto;html=1;exitX=1;exitY=0.75;exitDx=0;exitDy=0;entryX=0.005;entryY=0.319;entryDx=0;entryDy=0;entryPerimeter=0;" edge="1" parent="pB4lNLq1GXLPRWGLW8nv-1" source="pB4lNLq1GXLPRWGLW8nv-2" target="pB4lNLq1GXLPRWGLW8nv-76">
          <mxGeometry relative="1" as="geometry" />
        </mxCell>
        <mxCell id="pB4lNLq1GXLPRWGLW8nv-20" value="" style="group" vertex="1" connectable="0" parent="1">
          <mxGeometry x="660" y="40" width="109" height="116" as="geometry" />
        </mxCell>
        <mxCell id="pB4lNLq1GXLPRWGLW8nv-21" value="" style="ellipse;whiteSpace=wrap;html=1;aspect=fixed;align=left;" vertex="1" parent="pB4lNLq1GXLPRWGLW8nv-20">
          <mxGeometry x="14.987500000000002" y="15.950000000000001" width="92.35384615384616" height="92.35384615384616" as="geometry" />
        </mxCell>
        <mxCell id="pB4lNLq1GXLPRWGLW8nv-22" value="SPI&amp;nbsp; RX/TX + GPIO CS " style="text;html=1;strokeColor=none;fillColor=none;align=center;verticalAlign=middle;whiteSpace=wrap;rounded=0;" vertex="1" parent="pB4lNLq1GXLPRWGLW8nv-20">
          <mxGeometry x="21.118750000000006" y="36.975" width="81.75" height="58" as="geometry" />
        </mxCell>
        <mxCell id="pB4lNLq1GXLPRWGLW8nv-23" value="" style="group" vertex="1" connectable="0" parent="1">
          <mxGeometry x="1170" y="990" width="120" height="50" as="geometry" />
        </mxCell>
        <mxCell id="pB4lNLq1GXLPRWGLW8nv-24" value="" style="group" vertex="1" connectable="0" parent="pB4lNLq1GXLPRWGLW8nv-23">
          <mxGeometry width="119.99999999999999" height="50" as="geometry" />
        </mxCell>
        <mxCell id="pB4lNLq1GXLPRWGLW8nv-25" value="" style="ellipse;whiteSpace=wrap;html=1;align=left;" vertex="1" parent="pB4lNLq1GXLPRWGLW8nv-24">
          <mxGeometry width="119.99999999999999" height="50" as="geometry" />
        </mxCell>
        <mxCell id="pB4lNLq1GXLPRWGLW8nv-26" value="Mutex Uart peripherals " style="text;html=1;strokeColor=none;fillColor=none;align=center;verticalAlign=middle;whiteSpace=wrap;rounded=0;" vertex="1" parent="pB4lNLq1GXLPRWGLW8nv-24">
          <mxGeometry x="9.230769230769232" y="16.66666666666667" width="101.53846153846153" height="16.66666666666667" as="geometry" />
        </mxCell>
        <mxCell id="pB4lNLq1GXLPRWGLW8nv-27" value="&lt;font style=&quot;font-size: 8px&quot; color=&quot;#cccccc&quot;&gt;&lt;i&gt;Mutex&lt;/i&gt;&lt;/font&gt;" style="text;html=1;strokeColor=none;fillColor=none;align=center;verticalAlign=middle;whiteSpace=wrap;rounded=0;dropTarget=0;connectable=0;" vertex="1" parent="pB4lNLq1GXLPRWGLW8nv-24">
          <mxGeometry x="32.30769230769236" y="-4.166666666666668" width="55.384615384615394" height="16.66666666666667" as="geometry" />
        </mxCell>
        <mxCell id="pB4lNLq1GXLPRWGLW8nv-28" value="" style="group" vertex="1" connectable="0" parent="pB4lNLq1GXLPRWGLW8nv-24">
          <mxGeometry x="24.63157894736842" y="-50.91463414634146" width="70.73684210526315" height="63.41463414634146" as="geometry" />
        </mxCell>
        <mxCell id="pB4lNLq1GXLPRWGLW8nv-29" value="" style="ellipse;whiteSpace=wrap;html=1;aspect=fixed;align=left;" vertex="1" parent="pB4lNLq1GXLPRWGLW8nv-28">
          <mxGeometry width="60.210526315789465" height="60.210526315789465" as="geometry" />
        </mxCell>
        <mxCell id="pB4lNLq1GXLPRWGLW8nv-30" value="&lt;div&gt;UART&lt;/div&gt;&lt;div&gt;TX&lt;br&gt;&lt;/div&gt;" style="text;html=1;strokeColor=none;fillColor=none;align=center;verticalAlign=middle;whiteSpace=wrap;rounded=0;" vertex="1" parent="pB4lNLq1GXLPRWGLW8nv-28">
          <mxGeometry x="8.842105263157894" y="15.853658536585366" width="53.052631578947356" height="31.70731707317073" as="geometry" />
        </mxCell>
        <mxCell id="pB4lNLq1GXLPRWGLW8nv-31" value="" style="group" vertex="1" connectable="0" parent="1">
          <mxGeometry x="665" y="140" width="115" height="61" as="geometry" />
        </mxCell>
        <mxCell id="pB4lNLq1GXLPRWGLW8nv-32" value="" style="group" vertex="1" connectable="0" parent="pB4lNLq1GXLPRWGLW8nv-31">
          <mxGeometry width="115.00000000000003" height="61" as="geometry" />
        </mxCell>
        <mxCell id="pB4lNLq1GXLPRWGLW8nv-33" value="" style="ellipse;whiteSpace=wrap;html=1;align=left;" vertex="1" parent="pB4lNLq1GXLPRWGLW8nv-32">
          <mxGeometry width="115.00000000000003" height="61" as="geometry" />
        </mxCell>
        <mxCell id="pB4lNLq1GXLPRWGLW8nv-34" value="&lt;div&gt;Section Critique: Communication avec Radar&lt;/div&gt;" style="text;html=1;strokeColor=none;fillColor=none;align=center;verticalAlign=middle;whiteSpace=wrap;rounded=0;" vertex="1" parent="pB4lNLq1GXLPRWGLW8nv-32">
          <mxGeometry x="8.846153846153848" y="20.333333333333336" width="97.30769230769232" height="20.333333333333336" as="geometry" />
        </mxCell>
        <mxCell id="pB4lNLq1GXLPRWGLW8nv-35" value="&lt;font style=&quot;font-size: 8px&quot; color=&quot;#cccccc&quot;&gt;&lt;i&gt;Mutex&lt;/i&gt;&lt;/font&gt;" style="text;html=1;strokeColor=none;fillColor=none;align=center;verticalAlign=middle;whiteSpace=wrap;rounded=0;dropTarget=0;connectable=0;" vertex="1" parent="pB4lNLq1GXLPRWGLW8nv-32">
          <mxGeometry x="30.96153846153852" y="-5.083333333333334" width="53.076923076923094" height="20.333333333333336" as="geometry" />
        </mxCell>
        <mxCell id="pB4lNLq1GXLPRWGLW8nv-36" style="edgeStyle=orthogonalEdgeStyle;rounded=0;orthogonalLoop=1;jettySize=auto;html=1;exitX=1;exitY=0.25;exitDx=0;exitDy=0;entryX=0;entryY=0.5;entryDx=0;entryDy=0;curved=1;" edge="1" parent="1" source="pB4lNLq1GXLPRWGLW8nv-8" target="pB4lNLq1GXLPRWGLW8nv-33">
          <mxGeometry relative="1" as="geometry" />
        </mxCell>
        <mxCell id="pB4lNLq1GXLPRWGLW8nv-40" style="edgeStyle=orthogonalEdgeStyle;rounded=0;orthogonalLoop=1;jettySize=auto;html=1;curved=1;entryX=0.427;entryY=1.027;entryDx=0;entryDy=0;entryPerimeter=0;" edge="1" parent="1" target="pB4lNLq1GXLPRWGLW8nv-33">
          <mxGeometry relative="1" as="geometry">
            <mxPoint x="707.4782608695652" y="207.91304347826087" as="targetPoint" />
            <Array as="points">
              <mxPoint x="576" y="560" />
              <mxPoint x="576" y="540" />
              <mxPoint x="650" y="540" />
              <mxPoint x="650" y="420" />
              <mxPoint x="670" y="420" />
              <mxPoint x="670" y="240" />
              <mxPoint x="706" y="240" />
              <mxPoint x="706" y="200" />
              <mxPoint x="710" y="200" />
              <mxPoint x="710" y="202" />
            </Array>
            <mxPoint x="570" y="560" as="sourcePoint" />
          </mxGeometry>
        </mxCell>
        <mxCell id="pB4lNLq1GXLPRWGLW8nv-57" style="edgeStyle=orthogonalEdgeStyle;rounded=0;orthogonalLoop=1;jettySize=auto;html=1;exitX=0;exitY=0.25;exitDx=0;exitDy=0;entryX=1;entryY=0.5;entryDx=0;entryDy=0;curved=1;" edge="1" parent="1" source="pB4lNLq1GXLPRWGLW8nv-54" target="pB4lNLq1GXLPRWGLW8nv-33">
          <mxGeometry relative="1" as="geometry" />
        </mxCell>
        <mxCell id="pB4lNLq1GXLPRWGLW8nv-58" style="edgeStyle=orthogonalEdgeStyle;rounded=0;orthogonalLoop=1;jettySize=auto;html=1;exitX=0.682;exitY=1.005;exitDx=0;exitDy=0;entryX=1;entryY=1;entryDx=0;entryDy=0;curved=1;exitPerimeter=0;" edge="1" parent="1" source="pB4lNLq1GXLPRWGLW8nv-48" target="pB4lNLq1GXLPRWGLW8nv-33">
          <mxGeometry relative="1" as="geometry" />
        </mxCell>
        <mxCell id="pB4lNLq1GXLPRWGLW8nv-59" style="edgeStyle=orthogonalEdgeStyle;rounded=0;orthogonalLoop=1;jettySize=auto;html=1;exitX=0.768;exitY=1.002;exitDx=0;exitDy=0;entryX=0.675;entryY=0.97;entryDx=0;entryDy=0;curved=1;exitPerimeter=0;entryPerimeter=0;" edge="1" parent="1" source="pB4lNLq1GXLPRWGLW8nv-48" target="pB4lNLq1GXLPRWGLW8nv-33">
          <mxGeometry relative="1" as="geometry">
            <Array as="points">
              <mxPoint x="770" y="541" />
              <mxPoint x="770" y="230" />
              <mxPoint x="740" y="230" />
              <mxPoint x="740" y="200" />
            </Array>
          </mxGeometry>
        </mxCell>
        <mxCell id="pB4lNLq1GXLPRWGLW8nv-10" style="edgeStyle=orthogonalEdgeStyle;rounded=0;orthogonalLoop=1;jettySize=auto;html=1;exitX=1.003;exitY=0.559;exitDx=0;exitDy=0;entryX=0.241;entryY=0.941;entryDx=0;entryDy=0;exitPerimeter=0;curved=1;entryPerimeter=0;" edge="1" parent="1" source="pB4lNLq1GXLPRWGLW8nv-8" target="pB4lNLq1GXLPRWGLW8nv-33">
          <mxGeometry relative="1" as="geometry">
            <mxPoint x="572.502" y="438.1039999999999" as="sourcePoint" />
            <mxPoint x="714.2217395786431" y="192.99981462391142" as="targetPoint" />
            <Array as="points">
              <mxPoint x="600.5" y="481" />
              <mxPoint x="600.5" y="393" />
              <mxPoint x="650.5" y="393" />
              <mxPoint x="650.5" y="211" />
              <mxPoint x="680.5" y="211" />
              <mxPoint x="680.5" y="193" />
              <mxPoint x="687.5" y="193" />
            </Array>
          </mxGeometry>
        </mxCell>
        <mxCell id="pB4lNLq1GXLPRWGLW8nv-79" value="" style="group" vertex="1" connectable="0" parent="1">
          <mxGeometry x="120" y="780" width="80" height="80" as="geometry" />
        </mxCell>
        <mxCell id="pB4lNLq1GXLPRWGLW8nv-80" value="" style="ellipse;whiteSpace=wrap;html=1;aspect=fixed;align=left;" vertex="1" parent="pB4lNLq1GXLPRWGLW8nv-79">
          <mxGeometry width="80" height="80" as="geometry" />
        </mxCell>
        <mxCell id="pB4lNLq1GXLPRWGLW8nv-81" value="&lt;div&gt;GPIO &lt;br&gt;&lt;/div&gt;&lt;div&gt;(Radar SEL)&lt;br&gt;&lt;/div&gt;" style="text;html=1;strokeColor=none;fillColor=none;align=center;verticalAlign=middle;whiteSpace=wrap;rounded=0;" vertex="1" parent="pB4lNLq1GXLPRWGLW8nv-79">
          <mxGeometry x="10" y="20" width="60" height="40" as="geometry" />
        </mxCell>
        <mxCell id="pB4lNLq1GXLPRWGLW8nv-86" value="" style="group" vertex="1" connectable="0" parent="1">
          <mxGeometry x="1250" y="580" width="202.5" height="124" as="geometry" />
        </mxCell>
        <mxCell id="pB4lNLq1GXLPRWGLW8nv-87" value="" style="group" vertex="1" connectable="0" parent="pB4lNLq1GXLPRWGLW8nv-86">
          <mxGeometry x="20.948275862068968" width="181.55172413793107" height="93" as="geometry" />
        </mxCell>
        <mxCell id="pB4lNLq1GXLPRWGLW8nv-88" value="" style="ellipse;whiteSpace=wrap;html=1;align=left;" vertex="1" parent="pB4lNLq1GXLPRWGLW8nv-87">
          <mxGeometry width="181.55172413793107" height="93" as="geometry" />
        </mxCell>
        <mxCell id="pB4lNLq1GXLPRWGLW8nv-89" value="" style="group" vertex="1" connectable="0" parent="pB4lNLq1GXLPRWGLW8nv-86">
          <mxGeometry x="11.172413793103448" y="15.500000000000002" width="181.55172413793107" height="93" as="geometry" />
        </mxCell>
        <mxCell id="pB4lNLq1GXLPRWGLW8nv-90" value="" style="ellipse;whiteSpace=wrap;html=1;align=left;" vertex="1" parent="pB4lNLq1GXLPRWGLW8nv-89">
          <mxGeometry width="181.55172413793107" height="93" as="geometry" />
        </mxCell>
        <mxCell id="pB4lNLq1GXLPRWGLW8nv-91" value="" style="group" vertex="1" connectable="0" parent="pB4lNLq1GXLPRWGLW8nv-86">
          <mxGeometry y="31.000000000000004" width="181.55172413793107" height="93" as="geometry" />
        </mxCell>
        <mxCell id="pB4lNLq1GXLPRWGLW8nv-92" value="" style="ellipse;whiteSpace=wrap;html=1;align=left;" vertex="1" parent="pB4lNLq1GXLPRWGLW8nv-91">
          <mxGeometry width="181.55172413793107" height="93" as="geometry" />
        </mxCell>
        <mxCell id="pB4lNLq1GXLPRWGLW8nv-93" value="Message_Erreur " style="text;html=1;strokeColor=none;fillColor=none;align=center;verticalAlign=middle;whiteSpace=wrap;rounded=0;" vertex="1" parent="pB4lNLq1GXLPRWGLW8nv-91">
          <mxGeometry x="13.965517241379317" y="31.000000000000004" width="153.62068965517247" height="31.000000000000004" as="geometry" />
        </mxCell>
        <mxCell id="pB4lNLq1GXLPRWGLW8nv-110" style="edgeStyle=orthogonalEdgeStyle;rounded=0;orthogonalLoop=1;jettySize=auto;html=1;exitX=0.75;exitY=1;exitDx=0;exitDy=0;entryX=1;entryY=0.5;entryDx=0;entryDy=0;" edge="1" parent="1" source="pB4lNLq1GXLPRWGLW8nv-101" target="pB4lNLq1GXLPRWGLW8nv-25">
          <mxGeometry relative="1" as="geometry" />
        </mxCell>
        <mxCell id="pB4lNLq1GXLPRWGLW8nv-101" value="" style="rounded=0;whiteSpace=wrap;html=1;rotation=90;fontSize=8;opacity=50;fillColor=#f5f5f5;strokeColor=#666666;gradientColor=#b3b3b3;" vertex="1" parent="1">
          <mxGeometry x="1424.5" y="680" width="162" height="270" as="geometry" />
        </mxCell>
        <mxCell id="pB4lNLq1GXLPRWGLW8nv-102" value="" style="rounded=0;whiteSpace=wrap;html=1;fontSize=8;fontColor=#000000;opacity=50;" vertex="1" parent="1">
          <mxGeometry x="1370" y="733.5" width="160" height="40" as="geometry" />
        </mxCell>
        <mxCell id="pB4lNLq1GXLPRWGLW8nv-103" value="" style="rounded=0;whiteSpace=wrap;html=1;fontSize=8;fontColor=#000000;opacity=50;" vertex="1" parent="1">
          <mxGeometry x="1530" y="733.5" width="110" height="40" as="geometry" />
        </mxCell>
        <mxCell id="pB4lNLq1GXLPRWGLW8nv-104" value="" style="rounded=0;whiteSpace=wrap;html=1;fontSize=8;fontColor=#000000;opacity=50;" vertex="1" parent="1">
          <mxGeometry x="1370" y="773.5" width="270" height="40" as="geometry" />
        </mxCell>
        <mxCell id="pB4lNLq1GXLPRWGLW8nv-105" value="Tache_gestion_message_erreur" style="text;html=1;strokeColor=none;fillColor=none;align=center;verticalAlign=middle;whiteSpace=wrap;rounded=0;fontStyle=1;fontSize=8;fontColor=#000000;opacity=50;" vertex="1" parent="1">
          <mxGeometry x="1380" y="743.5" width="140" height="20" as="geometry" />
        </mxCell>
        <mxCell id="pB4lNLq1GXLPRWGLW8nv-106" value="Priority : +1" style="text;html=1;strokeColor=none;fillColor=none;align=center;verticalAlign=middle;whiteSpace=wrap;rounded=0;fontStyle=2;fontSize=8;fontColor=#000000;opacity=50;" vertex="1" parent="1">
          <mxGeometry x="1540" y="743.5" width="90" height="20" as="geometry" />
        </mxCell>
        <mxCell id="pB4lNLq1GXLPRWGLW8nv-107" value="&lt;br&gt;Gestion des Affichages " style="text;html=1;strokeColor=none;fillColor=none;align=center;verticalAlign=middle;whiteSpace=wrap;rounded=0;fontSize=8;fontColor=#000000;opacity=50;" vertex="1" parent="1">
          <mxGeometry x="1380" y="783.5" width="250" height="20" as="geometry" />
        </mxCell>
        <mxCell id="pB4lNLq1GXLPRWGLW8nv-108" value="&lt;div&gt;→ Attente des Messages .&lt;/div&gt;&lt;div&gt;&lt;br&gt;&lt;/div&gt;&lt;div&gt;→Gestion des Affichages .&lt;br&gt;&lt;div&gt;&lt;br&gt;&lt;br&gt;&lt;/div&gt;&lt;/div&gt;" style="text;html=1;strokeColor=none;fillColor=none;align=left;verticalAlign=top;whiteSpace=wrap;rounded=0;fontSize=8;fontColor=#000000;opacity=50;" vertex="1" parent="1">
          <mxGeometry x="1377" y="823.5" width="250" height="66.5" as="geometry" />
        </mxCell>
        <mxCell id="pB4lNLq1GXLPRWGLW8nv-109" style="edgeStyle=orthogonalEdgeStyle;rounded=0;orthogonalLoop=1;jettySize=auto;html=1;exitX=1;exitY=0.25;exitDx=0;exitDy=0;entryX=0;entryY=0.5;entryDx=0;entryDy=0;" edge="1" parent="1" source="pB4lNLq1GXLPRWGLW8nv-19" target="pB4lNLq1GXLPRWGLW8nv-25">
          <mxGeometry relative="1" as="geometry" />
        </mxCell>
        <mxCell id="pB4lNLq1GXLPRWGLW8nv-111" style="edgeStyle=orthogonalEdgeStyle;rounded=0;orthogonalLoop=1;jettySize=auto;html=1;exitX=0.75;exitY=0;exitDx=0;exitDy=0;entryX=0;entryY=1;entryDx=0;entryDy=0;curved=1;dashed=1;strokeWidth=2;dashPattern=1 2;" edge="1" parent="1" source="pB4lNLq1GXLPRWGLW8nv-2" target="pB4lNLq1GXLPRWGLW8nv-92">
          <mxGeometry relative="1" as="geometry">
            <Array as="points">
              <mxPoint x="580" y="560" />
              <mxPoint x="670" y="560" />
              <mxPoint x="670" y="724" />
              <mxPoint x="1240" y="724" />
              <mxPoint x="1240" y="690" />
            </Array>
          </mxGeometry>
        </mxCell>
        <mxCell id="pB4lNLq1GXLPRWGLW8nv-112" style="edgeStyle=orthogonalEdgeStyle;rounded=0;orthogonalLoop=1;jettySize=auto;html=1;exitX=1;exitY=0.75;exitDx=0;exitDy=0;entryX=0.5;entryY=0;entryDx=0;entryDy=0;dashed=1;dashPattern=1 1;strokeWidth=2;" edge="1" parent="1" source="pB4lNLq1GXLPRWGLW8nv-54" target="pB4lNLq1GXLPRWGLW8nv-88">
          <mxGeometry relative="1" as="geometry" />
        </mxCell>
        <mxCell id="pB4lNLq1GXLPRWGLW8nv-113" style="edgeStyle=orthogonalEdgeStyle;rounded=0;orthogonalLoop=1;jettySize=auto;html=1;exitX=0.5;exitY=1;exitDx=0;exitDy=0;entryX=0;entryY=0.25;entryDx=0;entryDy=0;" edge="1" parent="1" source="pB4lNLq1GXLPRWGLW8nv-92" target="pB4lNLq1GXLPRWGLW8nv-108">
          <mxGeometry relative="1" as="geometry" />
        </mxCell>
      </root>
    </mxGraphModel>
  </diagram>
</mxfile>
